<svg xmlns="http://www.w3.org/2000/svg" xmlns:xlink="http://www.w3.org/1999/xlink" width="120" zoomAndPan="magnify" viewBox="0 0 90 89.999999" height="120" preserveAspectRatio="xMidYMid meet" version="1.0"><defs><clipPath id="da4533d7e9"><path d="M 6 0 L 84.898438 0 L 84.898438 90 L 6 90 Z M 6 0 " clip-rule="nonzero"/></clipPath><clipPath id="5d32ee02d6"><path d="M 5.398438 0 L 84.898438 0 L 84.898438 90 L 5.398438 90 Z M 5.398438 0 " clip-rule="nonzero"/></clipPath><clipPath id="cb23b8cc9d"><path d="M 6 0 L 84.898438 0 L 84.898438 90 L 6 90 Z M 6 0 " clip-rule="nonzero"/></clipPath><clipPath id="10e34c126d"><path d="M 5.398438 0 L 84.898438 0 L 84.898438 90 L 5.398438 90 Z M 5.398438 0 " clip-rule="nonzero"/></clipPath></defs><g clip-path="url(#da4533d7e9)"><path fill="#fefffe" d="M 83.910156 66.832031 C 83.167969 68.144531 81.5 68.601562 80.1875 67.863281 L 74.359375 64.578125 L 75.363281 70.007812 C 75.636719 71.488281 74.65625 72.90625 73.171875 73.179688 C 71.6875 73.449219 70.265625 72.472656 69.992188 70.996094 L 68.15625 61.085938 L 64.847656 59.222656 L 65.851562 64.648438 C 66.125 66.128906 65.140625 67.546875 63.660156 67.820312 C 62.175781 68.09375 60.75 67.117188 60.476562 65.636719 L 58.644531 55.726562 L 49.304688 50.46875 L 47.941406 51.253906 L 48.035156 61.957031 L 55.851562 68.351562 C 56.507812 68.894531 56.847656 69.671875 56.847656 70.457031 C 56.847656 71.066406 56.644531 71.675781 56.226562 72.183594 C 55.265625 73.347656 53.546875 73.515625 52.378906 72.558594 L 48.097656 69.054688 L 48.132812 72.839844 L 55.949219 79.238281 C 56.601562 79.78125 56.945312 80.558594 56.945312 81.34375 C 56.945312 81.953125 56.738281 82.5625 56.324219 83.070312 C 55.367188 84.234375 53.640625 84.398438 52.476562 83.445312 L 48.199219 79.941406 L 48.257812 86.609375 C 48.269531 88.113281 47.058594 89.34375 45.550781 89.355469 C 44.039062 89.367188 42.804688 88.160156 42.792969 86.65625 L 42.734375 79.988281 L 38.515625 83.570312 C 37.367188 84.546875 35.644531 84.410156 34.664062 83.261719 C 33.6875 82.121094 33.824219 80.402344 34.972656 79.429688 L 42.667969 72.890625 L 42.632812 69.101562 L 38.417969 72.683594 C 37.269531 73.660156 35.546875 73.523438 34.566406 72.375 C 33.589844 71.234375 33.726562 69.515625 34.871094 68.542969 L 42.574219 62.003906 L 42.476562 51.320312 L 41.109375 50.535156 L 31.851562 55.96875 L 30.199219 65.90625 C 29.976562 67.242188 28.816406 68.183594 27.507812 68.183594 C 27.355469 68.183594 27.207031 68.171875 27.054688 68.148438 C 25.570312 67.902344 24.558594 66.5 24.808594 65.015625 L 25.714844 59.574219 L 22.4375 61.496094 L 20.78125 71.433594 C 20.5625 72.769531 19.402344 73.710938 18.089844 73.710938 C 17.941406 73.710938 17.792969 73.699219 17.640625 73.675781 C 16.152344 73.429688 15.148438 72.027344 15.394531 70.542969 L 16.300781 65.101562 L 10.53125 68.484375 C 9.234375 69.25 7.554688 68.816406 6.792969 67.523438 C 6.023438 66.226562 6.457031 64.558594 7.757812 63.796875 L 13.523438 60.410156 L 8.304688 58.5625 C 6.882812 58.058594 6.136719 56.503906 6.644531 55.085938 C 7.148438 53.667969 8.710938 52.929688 10.132812 53.429688 L 19.664062 56.804688 L 22.941406 54.882812 L 17.71875 53.03125 C 16.296875 52.53125 15.554688 50.972656 16.058594 49.558594 C 16.566406 48.140625 18.128906 47.402344 19.546875 47.902344 L 29.078125 51.277344 L 38.320312 45.851562 L 38.320312 44.277344 L 28.96875 39.011719 L 19.5 42.554688 C 19.1875 42.671875 18.859375 42.726562 18.539062 42.726562 C 17.433594 42.726562 16.394531 42.058594 15.980469 40.964844 C 15.453125 39.554688 16.164062 37.988281 17.578125 37.457031 L 22.765625 35.519531 L 19.457031 33.652344 L 9.988281 37.195312 C 9.671875 37.3125 9.347656 37.371094 9.027344 37.371094 C 7.921875 37.371094 6.882812 36.695312 6.46875 35.605469 C 5.9375 34.195312 6.652344 32.628906 8.066406 32.101562 L 13.253906 30.160156 L 7.425781 26.878906 C 6.113281 26.136719 5.648438 24.476562 6.390625 23.167969 C 7.132812 21.859375 8.804688 21.398438 10.113281 22.140625 L 15.941406 25.421875 L 14.9375 19.992188 C 14.664062 18.515625 15.644531 17.09375 17.132812 16.824219 C 18.613281 16.550781 20.039062 17.527344 20.3125 19.007812 L 22.144531 28.914062 L 25.453125 30.78125 L 24.453125 25.351562 C 24.179688 23.875 25.160156 22.453125 26.644531 22.179688 C 28.128906 21.910156 29.554688 22.886719 29.824219 24.363281 L 31.660156 34.273438 L 40.996094 39.535156 L 42.363281 38.746094 L 42.265625 28.046875 L 34.453125 21.648438 C 33.796875 21.109375 33.453125 20.328125 33.453125 19.542969 C 33.453125 18.933594 33.660156 18.320312 34.074219 17.816406 C 35.035156 16.65625 36.753906 16.488281 37.921875 17.441406 L 42.203125 20.945312 L 42.167969 17.160156 L 34.355469 10.761719 C 33.699219 10.222656 33.359375 9.445312 33.359375 8.65625 C 33.359375 8.046875 33.5625 7.4375 33.980469 6.929688 C 34.9375 5.769531 36.660156 5.601562 37.824219 6.554688 L 42.105469 10.058594 L 42.046875 3.390625 C 42.03125 1.890625 43.242188 0.660156 44.753906 0.644531 C 46.261719 0.632812 47.496094 1.839844 47.511719 3.34375 L 47.570312 10.011719 L 51.785156 6.433594 C 52.933594 5.457031 54.660156 5.59375 55.636719 6.738281 C 56.617188 7.882812 56.480469 9.601562 55.332031 10.574219 L 47.632812 17.109375 L 47.667969 20.898438 L 51.882812 17.316406 C 53.03125 16.34375 54.757812 16.480469 55.738281 17.625 C 56.714844 18.765625 56.574219 20.484375 55.429688 21.460938 L 47.730469 27.996094 L 47.824219 38.683594 L 49.195312 39.46875 L 58.449219 34.035156 L 60.101562 24.09375 C 60.328125 22.761719 61.484375 21.816406 62.796875 21.816406 C 62.945312 21.816406 63.097656 21.828125 63.246094 21.855469 C 64.734375 22.097656 65.742188 23.503906 65.496094 24.984375 L 64.589844 30.429688 L 67.863281 28.507812 L 69.519531 18.566406 C 69.742188 17.234375 70.898438 16.289062 72.210938 16.289062 C 72.359375 16.289062 72.507812 16.300781 72.660156 16.328125 C 74.152344 16.570312 75.15625 17.976562 74.910156 19.457031 L 74.003906 24.902344 L 79.769531 21.515625 C 81.070312 20.753906 82.746094 21.183594 83.511719 22.480469 C 84.277344 23.773438 83.84375 25.441406 82.542969 26.207031 L 76.777344 29.589844 L 82 31.441406 C 83.421875 31.941406 84.164062 33.5 83.660156 34.914062 C 83.15625 36.332031 81.59375 37.070312 80.167969 36.570312 L 70.640625 33.195312 L 67.363281 35.117188 L 72.582031 36.96875 C 74.003906 37.46875 74.75 39.027344 74.242188 40.445312 C 73.738281 41.859375 72.175781 42.597656 70.753906 42.097656 L 61.222656 38.722656 L 51.980469 44.148438 L 51.980469 45.722656 L 61.335938 50.988281 L 70.804688 47.449219 C 71.121094 47.328125 71.445312 47.273438 71.765625 47.273438 C 72.871094 47.273438 73.910156 47.949219 74.320312 49.039062 C 74.851562 50.445312 74.136719 52.015625 72.722656 52.542969 L 67.535156 54.480469 L 70.847656 56.347656 L 80.316406 52.804688 C 80.632812 52.6875 80.957031 52.632812 81.273438 52.632812 C 82.378906 52.632812 83.421875 53.304688 83.832031 54.394531 C 84.363281 55.804688 83.648438 57.371094 82.234375 57.902344 L 77.050781 59.839844 L 82.875 63.125 C 84.191406 63.863281 84.652344 65.523438 83.910156 66.832031 Z M 83.910156 66.832031 " fill-opacity="1" fill-rule="nonzero"/></g><g clip-path="url(#5d32ee02d6)"><path fill="#40697f" d="M 45.527344 89.988281 C 43.679688 89.988281 42.171875 88.503906 42.15625 86.664062 L 42.109375 81.351562 L 38.929688 84.050781 C 38.246094 84.632812 37.375 84.914062 36.476562 84.84375 C 35.578125 84.773438 34.761719 84.355469 34.179688 83.675781 C 32.976562 82.269531 33.144531 80.144531 34.558594 78.945312 L 42.03125 72.601562 L 42.011719 70.46875 L 38.832031 73.164062 C 38.214844 73.6875 37.449219 73.96875 36.652344 73.96875 C 36.5625 73.96875 36.46875 73.964844 36.378906 73.957031 C 35.480469 73.886719 34.664062 73.472656 34.082031 72.789062 C 32.878906 71.378906 33.046875 69.257812 34.460938 68.058594 L 41.933594 61.714844 L 41.84375 51.6875 L 41.113281 51.269531 L 32.433594 56.363281 L 30.828125 66.011719 C 30.695312 66.800781 30.285156 67.515625 29.671875 68.03125 C 29.0625 68.539062 28.292969 68.820312 27.507812 68.820312 C 27.324219 68.820312 27.136719 68.804688 26.953125 68.773438 C 25.117188 68.46875 23.875 66.734375 24.179688 64.910156 L 24.863281 60.808594 L 23.019531 61.890625 L 21.410156 71.539062 C 21.28125 72.328125 20.871094 73.042969 20.257812 73.558594 C 19.648438 74.066406 18.878906 74.347656 18.089844 74.347656 C 17.910156 74.347656 17.722656 74.332031 17.539062 74.300781 L 17.535156 74.300781 C 16.648438 74.152344 15.871094 73.671875 15.347656 72.941406 C 14.824219 72.214844 14.617188 71.324219 14.765625 70.441406 L 15.449219 66.335938 L 10.855469 69.03125 C 10.082031 69.488281 9.175781 69.613281 8.304688 69.390625 C 7.433594 69.164062 6.699219 68.617188 6.242188 67.84375 C 5.785156 67.074219 5.65625 66.171875 5.882812 65.300781 C 6.109375 64.433594 6.660156 63.703125 7.433594 63.25 L 12.027344 60.550781 L 8.089844 59.160156 C 7.242188 58.859375 6.5625 58.25 6.175781 57.4375 C 5.789062 56.628906 5.742188 55.71875 6.046875 54.875 C 6.34375 54.027344 6.957031 53.351562 7.769531 52.964844 C 8.582031 52.582031 9.496094 52.535156 10.34375 52.832031 L 19.597656 56.109375 L 21.445312 55.023438 L 17.507812 53.632812 C 16.660156 53.332031 15.980469 52.722656 15.589844 51.910156 C 15.203125 51.101562 15.15625 50.191406 15.457031 49.347656 C 15.761719 48.5 16.375 47.824219 17.1875 47.4375 C 18 47.054688 18.914062 47.007812 19.761719 47.304688 L 29.011719 50.582031 L 37.683594 45.488281 L 37.683594 44.648438 L 28.914062 39.710938 L 19.726562 43.148438 C 19.347656 43.289062 18.949219 43.363281 18.539062 43.363281 C 17.863281 43.363281 17.207031 43.160156 16.644531 42.78125 C 16.066406 42.390625 15.632812 41.839844 15.386719 41.1875 C 15.070312 40.347656 15.101562 39.433594 15.472656 38.621094 C 15.84375 37.804688 16.511719 37.179688 17.355469 36.863281 L 21.265625 35.402344 L 19.402344 34.351562 L 10.210938 37.789062 C 9.828125 37.933594 9.429688 38.007812 9.027344 38.007812 C 8.347656 38.007812 7.691406 37.804688 7.128906 37.421875 C 6.554688 37.03125 6.121094 36.480469 5.871094 35.828125 C 5.554688 34.988281 5.585938 34.078125 5.957031 33.261719 C 6.332031 32.445312 7 31.820312 7.84375 31.507812 L 11.75 30.042969 L 7.113281 27.429688 C 6.328125 26.988281 5.765625 26.269531 5.523438 25.40625 C 5.285156 24.542969 5.394531 23.636719 5.839844 22.855469 C 6.28125 22.078125 7.003906 21.515625 7.871094 21.273438 C 8.738281 21.035156 9.648438 21.144531 10.429688 21.585938 L 15.070312 24.199219 L 14.3125 20.105469 C 14.148438 19.226562 14.339844 18.335938 14.851562 17.597656 C 15.363281 16.855469 16.132812 16.359375 17.015625 16.199219 C 17.902344 16.035156 18.796875 16.226562 19.539062 16.734375 C 20.277344 17.246094 20.777344 18.011719 20.941406 18.894531 L 22.71875 28.507812 L 24.582031 29.558594 L 23.824219 25.464844 C 23.660156 24.585938 23.851562 23.691406 24.363281 22.953125 C 24.875 22.214844 25.644531 21.71875 26.53125 21.558594 C 28.355469 21.222656 30.117188 22.429688 30.453125 24.25 L 32.230469 33.867188 L 40.992188 38.804688 L 41.722656 38.382812 L 41.632812 28.347656 L 34.050781 22.136719 C 33.265625 21.5 32.816406 20.554688 32.816406 19.542969 C 32.816406 18.765625 33.089844 18.011719 33.585938 17.414062 C 34.15625 16.722656 34.964844 16.292969 35.859375 16.207031 C 36.753906 16.117188 37.632812 16.382812 38.328125 16.953125 L 41.554688 19.59375 L 41.535156 17.460938 L 33.949219 11.253906 C 33.167969 10.609375 32.722656 9.664062 32.722656 8.65625 C 32.722656 7.886719 32.992188 7.128906 33.484375 6.527344 C 34.667969 5.097656 36.796875 4.890625 38.230469 6.066406 L 41.457031 8.707031 L 41.410156 3.398438 C 41.398438 2.503906 41.742188 1.65625 42.375 1.019531 C 43.003906 0.378906 43.847656 0.0195312 44.746094 0.0117188 C 45.648438 0.00390625 46.496094 0.347656 47.136719 0.972656 C 47.78125 1.601562 48.136719 2.441406 48.148438 3.339844 L 48.195312 8.648438 L 51.371094 5.949219 C 52.058594 5.367188 52.929688 5.085938 53.824219 5.15625 C 54.722656 5.230469 55.539062 5.644531 56.121094 6.324219 C 56.707031 7.007812 56.988281 7.878906 56.917969 8.769531 C 56.84375 9.664062 56.429688 10.476562 55.746094 11.058594 L 48.273438 17.398438 L 48.292969 19.535156 L 51.472656 16.835938 C 52.882812 15.632812 55.015625 15.804688 56.222656 17.210938 C 57.425781 18.621094 57.257812 20.742188 55.84375 21.945312 L 48.371094 28.285156 L 48.460938 38.3125 L 49.191406 38.734375 L 57.867188 33.640625 L 59.472656 23.992188 C 59.605469 23.199219 60.019531 22.484375 60.632812 21.972656 C 61.238281 21.464844 62.007812 21.183594 62.796875 21.183594 C 62.980469 21.183594 63.164062 21.199219 63.351562 21.230469 C 64.238281 21.375 65.015625 21.855469 65.539062 22.585938 C 66.0625 23.316406 66.269531 24.203125 66.125 25.089844 L 65.441406 29.195312 L 67.285156 28.113281 L 68.890625 18.460938 C 69.023438 17.671875 69.433594 16.957031 70.046875 16.441406 C 70.65625 15.933594 71.421875 15.65625 72.210938 15.65625 C 72.394531 15.65625 72.578125 15.671875 72.765625 15.699219 C 73.652344 15.847656 74.429688 16.328125 74.953125 17.058594 C 75.476562 17.789062 75.683594 18.675781 75.535156 19.5625 L 74.855469 23.664062 L 79.445312 20.96875 C 80.222656 20.515625 81.128906 20.386719 82 20.613281 C 82.871094 20.835938 83.605469 21.386719 84.0625 22.15625 C 84.519531 22.929688 84.644531 23.832031 84.417969 24.699219 C 84.195312 25.570312 83.644531 26.296875 82.867188 26.753906 L 78.277344 29.449219 L 82.210938 30.839844 C 83.960938 31.460938 84.878906 33.382812 84.257812 35.128906 C 83.769531 36.5 82.46875 37.359375 81.082031 37.359375 C 80.707031 37.359375 80.328125 37.296875 79.957031 37.167969 L 70.707031 33.894531 L 68.863281 34.976562 L 72.796875 36.371094 C 73.644531 36.667969 74.324219 37.28125 74.710938 38.089844 C 75.097656 38.898438 75.144531 39.8125 74.84375 40.65625 C 74.355469 42.027344 73.050781 42.886719 71.664062 42.886719 C 71.292969 42.886719 70.910156 42.824219 70.539062 42.695312 L 61.289062 39.421875 L 52.617188 44.511719 L 52.617188 45.351562 L 61.390625 50.289062 L 70.578125 46.855469 C 70.964844 46.710938 71.363281 46.636719 71.765625 46.636719 C 72.441406 46.636719 73.097656 46.839844 73.660156 47.222656 C 74.238281 47.613281 74.671875 48.164062 74.917969 48.816406 C 75.234375 49.652344 75.203125 50.566406 74.832031 51.382812 C 74.457031 52.199219 73.789062 52.824219 72.945312 53.136719 L 69.039062 54.597656 L 70.902344 55.648438 L 80.089844 52.210938 C 80.46875 52.070312 80.867188 51.996094 81.273438 51.996094 C 81.953125 51.996094 82.609375 52.199219 83.171875 52.578125 C 83.75 52.96875 84.183594 53.523438 84.429688 54.171875 C 84.746094 55.011719 84.714844 55.925781 84.34375 56.742188 C 83.972656 57.554688 83.300781 58.179688 82.460938 58.496094 L 78.550781 59.957031 L 83.191406 62.574219 C 84.808594 63.484375 85.378906 65.535156 84.464844 67.144531 C 83.84375 68.234375 82.703125 68.847656 81.527344 68.847656 C 80.964844 68.847656 80.394531 68.710938 79.875 68.414062 L 75.234375 65.800781 L 75.988281 69.894531 C 76.152344 70.777344 75.960938 71.667969 75.449219 72.40625 C 74.941406 73.144531 74.171875 73.640625 73.289062 73.800781 C 72.402344 73.964844 71.507812 73.773438 70.765625 73.265625 C 70.023438 72.757812 69.527344 71.992188 69.363281 71.109375 L 67.585938 61.492188 L 65.71875 60.445312 L 66.476562 64.535156 C 66.640625 65.417969 66.449219 66.308594 65.9375 67.046875 C 65.429688 67.785156 64.660156 68.28125 63.777344 68.445312 C 63.570312 68.484375 63.363281 68.5 63.15625 68.5 C 62.480469 68.5 61.820312 68.296875 61.253906 67.90625 C 60.511719 67.398438 60.015625 66.632812 59.851562 65.75 L 58.074219 56.132812 L 49.308594 51.199219 L 48.582031 51.617188 L 48.671875 61.65625 L 56.253906 67.863281 C 57.035156 68.503906 57.484375 69.449219 57.484375 70.457031 C 57.484375 71.230469 57.210938 71.984375 56.71875 72.585938 C 56.144531 73.28125 55.335938 73.710938 54.441406 73.796875 C 53.546875 73.882812 52.671875 73.617188 51.976562 73.046875 L 48.75 70.40625 L 48.769531 72.539062 L 56.351562 78.75 C 57.132812 79.390625 57.582031 80.335938 57.582031 81.34375 C 57.582031 82.117188 57.308594 82.871094 56.816406 83.472656 C 56.246094 84.164062 55.4375 84.59375 54.542969 84.683594 C 53.648438 84.769531 52.769531 84.503906 52.074219 83.9375 L 48.847656 81.292969 L 48.894531 86.601562 C 48.910156 88.453125 47.414062 89.972656 45.554688 89.988281 C 45.546875 89.988281 45.535156 89.988281 45.527344 89.988281 Z M 43.359375 78.625 L 43.429688 86.652344 C 43.441406 87.796875 44.378906 88.71875 45.527344 88.71875 C 45.535156 88.71875 45.539062 88.71875 45.546875 88.71875 C 46.699219 88.710938 47.628906 87.765625 47.621094 86.613281 L 47.550781 78.585938 L 52.882812 82.957031 C 53.316406 83.308594 53.859375 83.472656 54.417969 83.417969 C 54.976562 83.363281 55.476562 83.097656 55.828125 82.667969 C 56.140625 82.289062 56.304688 81.832031 56.304688 81.34375 C 56.304688 80.71875 56.027344 80.128906 55.542969 79.730469 L 47.5 73.144531 L 47.449219 67.699219 L 52.785156 72.070312 C 53.21875 72.421875 53.761719 72.589844 54.316406 72.535156 C 54.875 72.480469 55.378906 72.210938 55.734375 71.78125 C 56.042969 71.402344 56.210938 70.945312 56.210938 70.457031 C 56.210938 69.832031 55.929688 69.242188 55.445312 68.84375 L 47.402344 62.257812 L 47.300781 50.890625 L 49.300781 49.734375 L 59.21875 55.320312 L 61.105469 65.523438 C 61.207031 66.070312 61.515625 66.546875 61.976562 66.863281 C 62.4375 67.179688 62.992188 67.296875 63.542969 67.199219 C 64.679688 66.988281 65.433594 65.894531 65.222656 64.765625 L 63.972656 58.003906 L 68.730469 60.679688 L 70.617188 70.878906 C 70.824219 72.011719 71.921875 72.761719 73.058594 72.554688 C 74.191406 72.347656 74.945312 71.253906 74.738281 70.125 L 73.484375 63.359375 L 80.5 67.3125 C 81.503906 67.878906 82.785156 67.523438 83.355469 66.523438 C 83.628906 66.035156 83.699219 65.472656 83.550781 64.9375 C 83.402344 64.398438 83.050781 63.953125 82.5625 63.679688 L 75.546875 59.726562 L 82.011719 57.308594 C 82.535156 57.113281 82.953125 56.722656 83.183594 56.214844 C 83.414062 55.710938 83.433594 55.140625 83.234375 54.621094 C 82.933594 53.808594 82.144531 53.265625 81.273438 53.265625 C 81.019531 53.265625 80.773438 53.3125 80.539062 53.398438 L 70.792969 57.046875 L 66.035156 54.367188 L 72.5 51.949219 C 73.023438 51.753906 73.4375 51.367188 73.671875 50.859375 C 73.902344 50.351562 73.921875 49.785156 73.722656 49.261719 C 73.417969 48.453125 72.632812 47.90625 71.765625 47.90625 C 71.515625 47.90625 71.265625 47.953125 71.027344 48.042969 L 61.28125 51.6875 L 51.34375 46.09375 L 51.34375 43.789062 L 61.15625 38.027344 L 70.964844 41.5 C 72.054688 41.882812 73.257812 41.316406 73.640625 40.230469 C 73.832031 39.707031 73.800781 39.140625 73.5625 38.636719 C 73.320312 38.132812 72.898438 37.753906 72.371094 37.566406 L 65.863281 35.261719 L 70.570312 32.5 L 80.382812 35.972656 C 81.472656 36.355469 82.671875 35.789062 83.058594 34.703125 C 83.445312 33.617188 82.875 32.421875 81.785156 32.039062 L 75.28125 29.734375 L 82.21875 25.660156 C 83.214844 25.074219 83.550781 23.792969 82.964844 22.804688 C 82.375 21.8125 81.089844 21.480469 80.09375 22.0625 L 73.152344 26.140625 L 74.28125 19.355469 C 74.371094 18.804688 74.242188 18.25 73.917969 17.796875 C 73.59375 17.34375 73.109375 17.042969 72.558594 16.953125 C 72.4375 16.933594 72.324219 16.925781 72.210938 16.925781 C 71.183594 16.925781 70.316406 17.660156 70.148438 18.671875 L 68.445312 28.90625 L 63.738281 31.667969 L 64.867188 24.882812 C 64.957031 24.332031 64.828125 23.777344 64.503906 23.324219 C 64.175781 22.871094 63.695312 22.570312 63.144531 22.480469 C 63.027344 22.460938 62.914062 22.453125 62.796875 22.453125 C 61.769531 22.453125 60.902344 23.1875 60.730469 24.199219 L 59.027344 34.433594 L 49.199219 40.203125 L 47.191406 39.050781 L 47.089844 27.707031 L 55.015625 20.980469 C 55.894531 20.230469 56 18.910156 55.25 18.035156 C 54.5 17.160156 53.175781 17.054688 52.296875 17.800781 L 47.042969 22.261719 L 46.992188 16.820312 L 54.917969 10.09375 C 55.796875 9.347656 55.902344 8.027344 55.152344 7.148438 C 54.789062 6.726562 54.28125 6.46875 53.722656 6.421875 C 53.164062 6.378906 52.625 6.554688 52.199219 6.917969 L 46.945312 11.378906 L 46.871094 3.351562 C 46.863281 2.207031 45.921875 1.28125 44.777344 1.28125 C 44.769531 1.28125 44.765625 1.28125 44.757812 1.28125 C 44.199219 1.285156 43.675781 1.507812 43.28125 1.90625 C 42.890625 2.304688 42.675781 2.828125 42.683594 3.386719 L 42.753906 11.414062 L 37.417969 7.046875 C 36.527344 6.316406 35.203125 6.445312 34.46875 7.332031 C 34.160156 7.710938 33.996094 8.171875 33.996094 8.65625 C 33.996094 9.285156 34.273438 9.875 34.757812 10.273438 L 42.800781 16.855469 L 42.851562 22.300781 L 37.519531 17.933594 C 36.625 17.203125 35.300781 17.332031 34.566406 18.21875 C 34.261719 18.589844 34.089844 19.0625 34.089844 19.542969 C 34.089844 20.171875 34.371094 20.757812 34.855469 21.15625 L 42.902344 27.742188 L 43 39.109375 L 41 40.265625 L 31.085938 34.679688 L 29.199219 24.480469 C 28.988281 23.347656 27.894531 22.597656 26.757812 22.804688 C 26.207031 22.90625 25.730469 23.214844 25.414062 23.675781 C 25.09375 24.132812 24.976562 24.6875 25.078125 25.234375 L 26.328125 32 L 21.574219 29.320312 L 19.6875 19.121094 C 19.585938 18.574219 19.277344 18.097656 18.816406 17.78125 C 18.355469 17.464844 17.796875 17.34375 17.246094 17.445312 C 16.695312 17.546875 16.21875 17.855469 15.898438 18.316406 C 15.582031 18.773438 15.464844 19.328125 15.566406 19.878906 L 16.816406 26.640625 L 9.800781 22.691406 C 9.316406 22.417969 8.75 22.347656 8.210938 22.496094 C 7.671875 22.644531 7.222656 22.996094 6.945312 23.480469 C 6.671875 23.964844 6.601562 24.527344 6.753906 25.066406 C 6.902344 25.605469 7.253906 26.050781 7.738281 26.324219 L 14.753906 30.273438 L 8.289062 32.695312 C 7.765625 32.890625 7.351562 33.277344 7.117188 33.785156 C 6.886719 34.292969 6.867188 34.859375 7.066406 35.382812 C 7.371094 36.191406 8.160156 36.738281 9.027344 36.738281 C 9.277344 36.738281 9.523438 36.691406 9.765625 36.601562 L 19.511719 32.953125 L 24.269531 35.632812 L 17.800781 38.050781 C 16.722656 38.457031 16.171875 39.664062 16.578125 40.742188 C 16.882812 41.550781 17.671875 42.09375 18.539062 42.09375 C 18.796875 42.09375 19.042969 42.050781 19.277344 41.960938 L 29.023438 38.3125 L 38.957031 43.910156 L 38.957031 46.214844 L 29.144531 51.976562 L 19.335938 48.503906 C 18.246094 48.117188 17.046875 48.6875 16.660156 49.773438 C 16.472656 50.296875 16.5 50.863281 16.742188 51.367188 C 16.984375 51.871094 17.40625 52.25 17.933594 52.433594 L 24.4375 54.738281 L 19.730469 57.503906 L 9.917969 54.027344 C 9.394531 53.84375 8.824219 53.871094 8.320312 54.113281 C 7.8125 54.351562 7.433594 54.773438 7.246094 55.296875 C 7.058594 55.824219 7.085938 56.390625 7.328125 56.894531 C 7.566406 57.398438 7.988281 57.777344 8.519531 57.964844 L 15.023438 60.265625 L 8.082031 64.34375 C 7.597656 64.625 7.257812 65.078125 7.117188 65.621094 C 6.976562 66.160156 7.054688 66.71875 7.339844 67.199219 C 7.625 67.679688 8.078125 68.023438 8.621094 68.160156 C 9.164062 68.300781 9.726562 68.222656 10.207031 67.9375 L 17.152344 63.863281 L 16.023438 70.648438 C 15.832031 71.78125 16.605469 72.859375 17.746094 73.050781 C 17.863281 73.070312 17.976562 73.078125 18.089844 73.078125 C 19.117188 73.078125 19.988281 72.34375 20.152344 71.332031 L 21.859375 61.097656 L 26.566406 58.335938 L 25.4375 65.121094 C 25.246094 66.253906 26.019531 67.332031 27.160156 67.523438 C 27.277344 67.542969 27.390625 67.550781 27.507812 67.550781 C 28.535156 67.550781 29.402344 66.816406 29.570312 65.804688 L 31.273438 55.570312 L 41.105469 49.800781 L 43.109375 50.949219 L 43.210938 62.296875 L 35.285156 69.023438 C 34.40625 69.769531 34.300781 71.089844 35.050781 71.964844 C 35.800781 72.839844 37.125 72.945312 38.007812 72.199219 L 43.257812 67.738281 L 43.308594 73.183594 L 35.386719 79.910156 C 34.960938 80.273438 34.699219 80.777344 34.65625 81.332031 C 34.609375 81.886719 34.785156 82.429688 35.148438 82.851562 C 35.511719 83.277344 36.019531 83.535156 36.578125 83.578125 C 37.136719 83.625 37.675781 83.449219 38.101562 83.085938 Z M 43.359375 78.625 " fill-opacity="1" fill-rule="nonzero"/></g><g clip-path="url(#cb23b8cc9d)"><path fill="#fefffe" d="M 83.910156 66.832031 C 83.167969 68.144531 81.5 68.601562 80.1875 67.863281 L 74.359375 64.578125 L 75.363281 70.007812 C 75.636719 71.488281 74.65625 72.90625 73.171875 73.179688 C 71.6875 73.449219 70.265625 72.472656 69.992188 70.996094 L 68.15625 61.085938 L 64.847656 59.222656 L 65.851562 64.648438 C 66.125 66.128906 65.140625 67.546875 63.660156 67.820312 C 62.175781 68.09375 60.75 67.117188 60.476562 65.636719 L 58.644531 55.726562 L 49.304688 50.46875 L 47.941406 51.253906 L 48.035156 61.957031 L 55.851562 68.351562 C 56.507812 68.894531 56.847656 69.671875 56.847656 70.457031 C 56.847656 71.066406 56.644531 71.675781 56.226562 72.183594 C 55.265625 73.347656 53.546875 73.515625 52.378906 72.558594 L 48.097656 69.054688 L 48.132812 72.839844 L 55.949219 79.238281 C 56.601562 79.78125 56.945312 80.558594 56.945312 81.34375 C 56.945312 81.953125 56.738281 82.5625 56.324219 83.070312 C 55.367188 84.234375 53.640625 84.398438 52.476562 83.445312 L 48.199219 79.941406 L 48.257812 86.609375 C 48.269531 88.113281 47.058594 89.34375 45.550781 89.355469 C 44.039062 89.367188 42.804688 88.160156 42.792969 86.65625 L 42.734375 79.988281 L 38.515625 83.570312 C 37.367188 84.546875 35.644531 84.410156 34.664062 83.261719 C 33.6875 82.121094 33.824219 80.402344 34.972656 79.429688 L 42.667969 72.890625 L 42.632812 69.101562 L 38.417969 72.683594 C 37.269531 73.660156 35.546875 73.523438 34.566406 72.375 C 33.589844 71.234375 33.726562 69.515625 34.871094 68.542969 L 42.574219 62.003906 L 42.476562 51.320312 L 41.109375 50.535156 L 31.851562 55.96875 L 30.199219 65.90625 C 29.976562 67.242188 28.816406 68.183594 27.507812 68.183594 C 27.355469 68.183594 27.207031 68.171875 27.054688 68.148438 C 25.570312 67.902344 24.558594 66.5 24.808594 65.015625 L 25.714844 59.574219 L 22.4375 61.496094 L 20.78125 71.433594 C 20.5625 72.769531 19.402344 73.710938 18.089844 73.710938 C 17.941406 73.710938 17.792969 73.699219 17.640625 73.675781 C 16.152344 73.429688 15.148438 72.027344 15.394531 70.542969 L 16.300781 65.101562 L 10.53125 68.484375 C 9.234375 69.25 7.554688 68.816406 6.792969 67.523438 C 6.023438 66.226562 6.457031 64.558594 7.757812 63.796875 L 13.523438 60.410156 L 8.304688 58.5625 C 6.882812 58.058594 6.136719 56.503906 6.644531 55.085938 C 7.148438 53.667969 8.710938 52.929688 10.132812 53.429688 L 19.664062 56.804688 L 22.941406 54.882812 L 17.71875 53.03125 C 16.296875 52.53125 15.554688 50.972656 16.058594 49.558594 C 16.566406 48.140625 18.128906 47.402344 19.546875 47.902344 L 29.078125 51.277344 L 38.320312 45.851562 L 38.320312 44.277344 L 28.96875 39.011719 L 19.5 42.554688 C 19.1875 42.671875 18.859375 42.726562 18.539062 42.726562 C 17.433594 42.726562 16.394531 42.058594 15.980469 40.964844 C 15.453125 39.554688 16.164062 37.988281 17.578125 37.457031 L 22.765625 35.519531 L 19.457031 33.652344 L 9.988281 37.195312 C 9.671875 37.3125 9.347656 37.371094 9.027344 37.371094 C 7.921875 37.371094 6.882812 36.695312 6.46875 35.605469 C 5.9375 34.195312 6.652344 32.628906 8.066406 32.101562 L 13.253906 30.160156 L 7.425781 26.878906 C 6.113281 26.136719 5.648438 24.476562 6.390625 23.167969 C 7.132812 21.859375 8.804688 21.398438 10.113281 22.140625 L 15.941406 25.421875 L 14.9375 19.992188 C 14.664062 18.515625 15.644531 17.09375 17.132812 16.824219 C 18.613281 16.550781 20.039062 17.527344 20.3125 19.007812 L 22.144531 28.914062 L 25.453125 30.78125 L 24.453125 25.351562 C 24.179688 23.875 25.160156 22.453125 26.644531 22.179688 C 28.128906 21.910156 29.554688 22.886719 29.824219 24.363281 L 31.660156 34.273438 L 40.996094 39.535156 L 42.363281 38.746094 L 42.265625 28.046875 L 34.453125 21.648438 C 33.796875 21.109375 33.453125 20.328125 33.453125 19.542969 C 33.453125 18.933594 33.660156 18.320312 34.074219 17.816406 C 35.035156 16.65625 36.753906 16.488281 37.921875 17.441406 L 42.203125 20.945312 L 42.167969 17.160156 L 34.355469 10.761719 C 33.699219 10.222656 33.359375 9.445312 33.359375 8.65625 C 33.359375 8.046875 33.5625 7.4375 33.980469 6.929688 C 34.9375 5.769531 36.660156 5.601562 37.824219 6.554688 L 42.105469 10.058594 L 42.046875 3.390625 C 42.03125 1.890625 43.242188 0.660156 44.753906 0.644531 C 46.261719 0.632812 47.496094 1.839844 47.511719 3.34375 L 47.570312 10.011719 L 51.785156 6.433594 C 52.933594 5.457031 54.660156 5.59375 55.636719 6.738281 C 56.617188 7.882812 56.480469 9.601562 55.332031 10.574219 L 47.632812 17.109375 L 47.667969 20.898438 L 51.882812 17.316406 C 53.03125 16.34375 54.757812 16.480469 55.738281 17.625 C 56.714844 18.765625 56.574219 20.484375 55.429688 21.460938 L 47.730469 27.996094 L 47.824219 38.683594 L 49.195312 39.46875 L 58.449219 34.035156 L 60.101562 24.09375 C 60.328125 22.761719 61.484375 21.816406 62.796875 21.816406 C 62.945312 21.816406 63.097656 21.828125 63.246094 21.855469 C 64.734375 22.097656 65.742188 23.503906 65.496094 24.984375 L 64.589844 30.429688 L 67.863281 28.507812 L 69.519531 18.566406 C 69.742188 17.234375 70.898438 16.289062 72.210938 16.289062 C 72.359375 16.289062 72.507812 16.300781 72.660156 16.328125 C 74.152344 16.570312 75.15625 17.976562 74.910156 19.457031 L 74.003906 24.902344 L 79.769531 21.515625 C 81.070312 20.753906 82.746094 21.183594 83.511719 22.480469 C 84.277344 23.773438 83.84375 25.441406 82.542969 26.207031 L 76.777344 29.589844 L 82 31.441406 C 83.421875 31.941406 84.164062 33.5 83.660156 34.914062 C 83.15625 36.332031 81.59375 37.070312 80.167969 36.570312 L 70.640625 33.195312 L 67.363281 35.117188 L 72.582031 36.96875 C 74.003906 37.46875 74.75 39.027344 74.242188 40.445312 C 73.738281 41.859375 72.175781 42.597656 70.753906 42.097656 L 61.222656 38.722656 L 51.980469 44.148438 L 51.980469 45.722656 L 61.335938 50.988281 L 70.804688 47.449219 C 71.121094 47.328125 71.445312 47.273438 71.765625 47.273438 C 72.871094 47.273438 73.910156 47.949219 74.320312 49.039062 C 74.851562 50.445312 74.136719 52.015625 72.722656 52.542969 L 67.535156 54.480469 L 70.847656 56.347656 L 80.316406 52.804688 C 80.632812 52.6875 80.957031 52.632812 81.273438 52.632812 C 82.378906 52.632812 83.421875 53.304688 83.832031 54.394531 C 84.363281 55.804688 83.648438 57.371094 82.234375 57.902344 L 77.050781 59.839844 L 82.875 63.125 C 84.191406 63.863281 84.652344 65.523438 83.910156 66.832031 Z M 83.910156 66.832031 " fill-opacity="1" fill-rule="nonzero"/></g><g clip-path="url(#10e34c126d)"><path fill="#40697f" d="M 45.527344 89.988281 C 43.679688 89.988281 42.171875 88.503906 42.15625 86.664062 L 42.109375 81.351562 L 38.929688 84.050781 C 38.246094 84.632812 37.375 84.914062 36.476562 84.84375 C 35.578125 84.773438 34.761719 84.355469 34.179688 83.675781 C 32.976562 82.269531 33.144531 80.144531 34.558594 78.945312 L 42.03125 72.601562 L 42.011719 70.46875 L 38.832031 73.164062 C 38.214844 73.6875 37.449219 73.96875 36.652344 73.96875 C 36.5625 73.96875 36.46875 73.964844 36.378906 73.957031 C 35.480469 73.886719 34.664062 73.472656 34.082031 72.789062 C 32.878906 71.378906 33.046875 69.257812 34.460938 68.058594 L 41.933594 61.714844 L 41.84375 51.6875 L 41.113281 51.269531 L 32.433594 56.363281 L 30.828125 66.011719 C 30.695312 66.800781 30.285156 67.515625 29.671875 68.03125 C 29.0625 68.539062 28.292969 68.820312 27.507812 68.820312 C 27.324219 68.820312 27.136719 68.804688 26.953125 68.773438 C 25.117188 68.46875 23.875 66.734375 24.179688 64.910156 L 24.863281 60.808594 L 23.019531 61.890625 L 21.410156 71.539062 C 21.28125 72.328125 20.871094 73.042969 20.257812 73.558594 C 19.648438 74.066406 18.878906 74.347656 18.089844 74.347656 C 17.910156 74.347656 17.722656 74.332031 17.539062 74.300781 L 17.535156 74.300781 C 16.648438 74.152344 15.871094 73.671875 15.347656 72.941406 C 14.824219 72.214844 14.617188 71.324219 14.765625 70.441406 L 15.449219 66.335938 L 10.855469 69.03125 C 10.082031 69.488281 9.175781 69.613281 8.304688 69.390625 C 7.433594 69.164062 6.699219 68.617188 6.242188 67.84375 C 5.785156 67.074219 5.65625 66.171875 5.882812 65.300781 C 6.109375 64.433594 6.660156 63.703125 7.433594 63.25 L 12.027344 60.550781 L 8.089844 59.160156 C 7.242188 58.859375 6.5625 58.25 6.175781 57.4375 C 5.789062 56.628906 5.742188 55.71875 6.046875 54.875 C 6.34375 54.027344 6.957031 53.351562 7.769531 52.964844 C 8.582031 52.582031 9.496094 52.535156 10.34375 52.832031 L 19.597656 56.109375 L 21.445312 55.023438 L 17.507812 53.632812 C 16.660156 53.332031 15.980469 52.722656 15.589844 51.910156 C 15.203125 51.101562 15.15625 50.191406 15.457031 49.347656 C 15.761719 48.5 16.375 47.824219 17.1875 47.4375 C 18 47.054688 18.914062 47.007812 19.761719 47.304688 L 29.011719 50.582031 L 37.683594 45.488281 L 37.683594 44.648438 L 28.914062 39.710938 L 19.726562 43.148438 C 19.347656 43.289062 18.949219 43.363281 18.539062 43.363281 C 17.863281 43.363281 17.207031 43.160156 16.644531 42.78125 C 16.066406 42.390625 15.632812 41.839844 15.386719 41.1875 C 15.070312 40.347656 15.101562 39.433594 15.472656 38.621094 C 15.84375 37.804688 16.511719 37.179688 17.355469 36.863281 L 21.265625 35.402344 L 19.402344 34.351562 L 10.210938 37.789062 C 9.828125 37.933594 9.429688 38.007812 9.027344 38.007812 C 8.347656 38.007812 7.691406 37.804688 7.128906 37.421875 C 6.554688 37.03125 6.121094 36.480469 5.871094 35.828125 C 5.554688 34.988281 5.585938 34.078125 5.957031 33.261719 C 6.332031 32.445312 7 31.820312 7.84375 31.507812 L 11.75 30.042969 L 7.113281 27.429688 C 6.328125 26.988281 5.765625 26.269531 5.523438 25.40625 C 5.285156 24.542969 5.394531 23.636719 5.839844 22.855469 C 6.28125 22.078125 7.003906 21.515625 7.871094 21.273438 C 8.738281 21.035156 9.648438 21.144531 10.429688 21.585938 L 15.070312 24.199219 L 14.3125 20.105469 C 14.148438 19.226562 14.339844 18.335938 14.851562 17.597656 C 15.363281 16.855469 16.132812 16.359375 17.015625 16.199219 C 17.902344 16.035156 18.796875 16.226562 19.539062 16.734375 C 20.277344 17.246094 20.777344 18.011719 20.941406 18.894531 L 22.71875 28.507812 L 24.582031 29.558594 L 23.824219 25.464844 C 23.660156 24.585938 23.851562 23.691406 24.363281 22.953125 C 24.875 22.214844 25.644531 21.71875 26.53125 21.558594 C 28.355469 21.222656 30.117188 22.429688 30.453125 24.25 L 32.230469 33.867188 L 40.992188 38.804688 L 41.722656 38.382812 L 41.632812 28.347656 L 34.050781 22.136719 C 33.265625 21.5 32.816406 20.554688 32.816406 19.542969 C 32.816406 18.765625 33.089844 18.011719 33.585938 17.414062 C 34.15625 16.722656 34.964844 16.292969 35.859375 16.207031 C 36.753906 16.117188 37.632812 16.382812 38.328125 16.953125 L 41.554688 19.59375 L 41.535156 17.460938 L 33.949219 11.253906 C 33.167969 10.609375 32.722656 9.664062 32.722656 8.65625 C 32.722656 7.886719 32.992188 7.128906 33.484375 6.527344 C 34.667969 5.097656 36.796875 4.890625 38.230469 6.066406 L 41.457031 8.707031 L 41.410156 3.398438 C 41.398438 2.503906 41.742188 1.65625 42.375 1.019531 C 43.003906 0.378906 43.847656 0.0195312 44.746094 0.0117188 C 45.648438 0.00390625 46.496094 0.347656 47.136719 0.972656 C 47.78125 1.601562 48.136719 2.441406 48.148438 3.339844 L 48.195312 8.648438 L 51.371094 5.949219 C 52.058594 5.367188 52.929688 5.085938 53.824219 5.15625 C 54.722656 5.230469 55.539062 5.644531 56.121094 6.324219 C 56.707031 7.007812 56.988281 7.878906 56.917969 8.769531 C 56.84375 9.664062 56.429688 10.476562 55.746094 11.058594 L 48.273438 17.398438 L 48.292969 19.535156 L 51.472656 16.835938 C 52.882812 15.632812 55.015625 15.804688 56.222656 17.210938 C 57.425781 18.621094 57.257812 20.742188 55.84375 21.945312 L 48.371094 28.285156 L 48.460938 38.3125 L 49.191406 38.734375 L 57.867188 33.640625 L 59.472656 23.992188 C 59.605469 23.199219 60.019531 22.484375 60.632812 21.972656 C 61.238281 21.464844 62.007812 21.183594 62.796875 21.183594 C 62.980469 21.183594 63.164062 21.199219 63.351562 21.230469 C 64.238281 21.375 65.015625 21.855469 65.539062 22.585938 C 66.0625 23.316406 66.269531 24.203125 66.125 25.089844 L 65.441406 29.195312 L 67.285156 28.113281 L 68.890625 18.460938 C 69.023438 17.671875 69.433594 16.957031 70.046875 16.441406 C 70.65625 15.933594 71.421875 15.65625 72.210938 15.65625 C 72.394531 15.65625 72.578125 15.671875 72.765625 15.699219 C 73.652344 15.847656 74.429688 16.328125 74.953125 17.058594 C 75.476562 17.789062 75.683594 18.675781 75.535156 19.5625 L 74.855469 23.664062 L 79.445312 20.96875 C 80.222656 20.515625 81.128906 20.386719 82 20.613281 C 82.871094 20.835938 83.605469 21.386719 84.0625 22.15625 C 84.519531 22.929688 84.644531 23.832031 84.417969 24.699219 C 84.195312 25.570312 83.644531 26.296875 82.867188 26.753906 L 78.277344 29.449219 L 82.210938 30.839844 C 83.960938 31.460938 84.878906 33.382812 84.257812 35.128906 C 83.769531 36.5 82.46875 37.359375 81.082031 37.359375 C 80.707031 37.359375 80.328125 37.296875 79.957031 37.167969 L 70.707031 33.894531 L 68.863281 34.976562 L 72.796875 36.371094 C 73.644531 36.667969 74.324219 37.28125 74.710938 38.089844 C 75.097656 38.898438 75.144531 39.8125 74.84375 40.65625 C 74.355469 42.027344 73.050781 42.886719 71.664062 42.886719 C 71.292969 42.886719 70.910156 42.824219 70.539062 42.695312 L 61.289062 39.421875 L 52.617188 44.511719 L 52.617188 45.351562 L 61.390625 50.289062 L 70.578125 46.855469 C 70.964844 46.710938 71.363281 46.636719 71.765625 46.636719 C 72.441406 46.636719 73.097656 46.839844 73.660156 47.222656 C 74.238281 47.613281 74.671875 48.164062 74.917969 48.816406 C 75.234375 49.652344 75.203125 50.566406 74.832031 51.382812 C 74.457031 52.199219 73.789062 52.824219 72.945312 53.136719 L 69.039062 54.597656 L 70.902344 55.648438 L 80.089844 52.210938 C 80.46875 52.070312 80.867188 51.996094 81.273438 51.996094 C 81.953125 51.996094 82.609375 52.199219 83.171875 52.578125 C 83.75 52.96875 84.183594 53.523438 84.429688 54.171875 C 84.746094 55.011719 84.714844 55.925781 84.34375 56.742188 C 83.972656 57.554688 83.300781 58.179688 82.460938 58.496094 L 78.550781 59.957031 L 83.191406 62.574219 C 84.808594 63.484375 85.378906 65.535156 84.464844 67.144531 C 83.84375 68.234375 82.703125 68.847656 81.527344 68.847656 C 80.964844 68.847656 80.394531 68.710938 79.875 68.414062 L 75.234375 65.800781 L 75.988281 69.894531 C 76.152344 70.777344 75.960938 71.667969 75.449219 72.40625 C 74.941406 73.144531 74.171875 73.640625 73.289062 73.800781 C 72.402344 73.964844 71.507812 73.773438 70.765625 73.265625 C 70.023438 72.757812 69.527344 71.992188 69.363281 71.109375 L 67.585938 61.492188 L 65.71875 60.445312 L 66.476562 64.535156 C 66.640625 65.417969 66.449219 66.308594 65.9375 67.046875 C 65.429688 67.785156 64.660156 68.28125 63.777344 68.445312 C 63.570312 68.484375 63.363281 68.5 63.15625 68.5 C 62.480469 68.5 61.820312 68.296875 61.253906 67.90625 C 60.511719 67.398438 60.015625 66.632812 59.851562 65.75 L 58.074219 56.132812 L 49.308594 51.199219 L 48.582031 51.617188 L 48.671875 61.65625 L 56.253906 67.863281 C 57.035156 68.503906 57.484375 69.449219 57.484375 70.457031 C 57.484375 71.230469 57.210938 71.984375 56.71875 72.585938 C 56.144531 73.28125 55.335938 73.710938 54.441406 73.796875 C 53.546875 73.882812 52.671875 73.617188 51.976562 73.046875 L 48.75 70.40625 L 48.769531 72.539062 L 56.351562 78.75 C 57.132812 79.390625 57.582031 80.335938 57.582031 81.34375 C 57.582031 82.117188 57.308594 82.871094 56.816406 83.472656 C 56.246094 84.164062 55.4375 84.59375 54.542969 84.683594 C 53.648438 84.769531 52.769531 84.503906 52.074219 83.9375 L 48.847656 81.292969 L 48.894531 86.601562 C 48.910156 88.453125 47.414062 89.972656 45.554688 89.988281 C 45.546875 89.988281 45.535156 89.988281 45.527344 89.988281 Z M 43.359375 78.625 L 43.429688 86.652344 C 43.441406 87.796875 44.378906 88.71875 45.527344 88.71875 C 45.535156 88.71875 45.539062 88.71875 45.546875 88.71875 C 46.699219 88.710938 47.628906 87.765625 47.621094 86.613281 L 47.550781 78.585938 L 52.882812 82.957031 C 53.316406 83.308594 53.859375 83.472656 54.417969 83.417969 C 54.976562 83.363281 55.476562 83.097656 55.828125 82.667969 C 56.140625 82.289062 56.304688 81.832031 56.304688 81.34375 C 56.304688 80.71875 56.027344 80.128906 55.542969 79.730469 L 47.5 73.144531 L 47.449219 67.699219 L 52.785156 72.070312 C 53.21875 72.421875 53.761719 72.589844 54.316406 72.535156 C 54.875 72.480469 55.378906 72.210938 55.734375 71.78125 C 56.042969 71.402344 56.210938 70.945312 56.210938 70.457031 C 56.210938 69.832031 55.929688 69.242188 55.445312 68.84375 L 47.402344 62.257812 L 47.300781 50.890625 L 49.300781 49.734375 L 59.21875 55.320312 L 61.105469 65.523438 C 61.207031 66.070312 61.515625 66.546875 61.976562 66.863281 C 62.4375 67.179688 62.992188 67.296875 63.542969 67.199219 C 64.679688 66.988281 65.433594 65.894531 65.222656 64.765625 L 63.972656 58.003906 L 68.730469 60.679688 L 70.617188 70.878906 C 70.824219 72.011719 71.921875 72.761719 73.058594 72.554688 C 74.191406 72.347656 74.945312 71.253906 74.738281 70.125 L 73.484375 63.359375 L 80.5 67.3125 C 81.503906 67.878906 82.785156 67.523438 83.355469 66.523438 C 83.628906 66.035156 83.699219 65.472656 83.550781 64.9375 C 83.402344 64.398438 83.050781 63.953125 82.5625 63.679688 L 75.546875 59.726562 L 82.011719 57.308594 C 82.535156 57.113281 82.953125 56.722656 83.183594 56.214844 C 83.414062 55.710938 83.433594 55.140625 83.234375 54.621094 C 82.933594 53.808594 82.144531 53.265625 81.273438 53.265625 C 81.019531 53.265625 80.773438 53.3125 80.539062 53.398438 L 70.792969 57.046875 L 66.035156 54.367188 L 72.5 51.949219 C 73.023438 51.753906 73.4375 51.367188 73.671875 50.859375 C 73.902344 50.351562 73.921875 49.785156 73.722656 49.261719 C 73.417969 48.453125 72.632812 47.90625 71.765625 47.90625 C 71.515625 47.90625 71.265625 47.953125 71.027344 48.042969 L 61.28125 51.6875 L 51.34375 46.09375 L 51.34375 43.789062 L 61.15625 38.027344 L 70.964844 41.5 C 72.054688 41.882812 73.257812 41.316406 73.640625 40.230469 C 73.832031 39.707031 73.800781 39.140625 73.5625 38.636719 C 73.320312 38.132812 72.898438 37.753906 72.371094 37.566406 L 65.863281 35.261719 L 70.570312 32.5 L 80.382812 35.972656 C 81.472656 36.355469 82.671875 35.789062 83.058594 34.703125 C 83.445312 33.617188 82.875 32.421875 81.785156 32.039062 L 75.28125 29.734375 L 82.21875 25.660156 C 83.214844 25.074219 83.550781 23.792969 82.964844 22.804688 C 82.375 21.8125 81.089844 21.480469 80.09375 22.0625 L 73.152344 26.140625 L 74.28125 19.355469 C 74.371094 18.804688 74.242188 18.25 73.917969 17.796875 C 73.59375 17.34375 73.109375 17.042969 72.558594 16.953125 C 72.4375 16.933594 72.324219 16.925781 72.210938 16.925781 C 71.183594 16.925781 70.316406 17.660156 70.148438 18.671875 L 68.445312 28.90625 L 63.738281 31.667969 L 64.867188 24.882812 C 64.957031 24.332031 64.828125 23.777344 64.503906 23.324219 C 64.175781 22.871094 63.695312 22.570312 63.144531 22.480469 C 63.027344 22.460938 62.914062 22.453125 62.796875 22.453125 C 61.769531 22.453125 60.902344 23.1875 60.730469 24.199219 L 59.027344 34.433594 L 49.199219 40.203125 L 47.191406 39.050781 L 47.089844 27.707031 L 55.015625 20.980469 C 55.894531 20.230469 56 18.910156 55.25 18.035156 C 54.5 17.160156 53.175781 17.054688 52.296875 17.800781 L 47.042969 22.261719 L 46.992188 16.820312 L 54.917969 10.09375 C 55.796875 9.347656 55.902344 8.027344 55.152344 7.148438 C 54.789062 6.726562 54.28125 6.46875 53.722656 6.421875 C 53.164062 6.378906 52.625 6.554688 52.199219 6.917969 L 46.945312 11.378906 L 46.871094 3.351562 C 46.863281 2.207031 45.921875 1.28125 44.777344 1.28125 C 44.769531 1.28125 44.765625 1.28125 44.757812 1.28125 C 44.199219 1.285156 43.675781 1.507812 43.28125 1.90625 C 42.890625 2.304688 42.675781 2.828125 42.683594 3.386719 L 42.753906 11.414062 L 37.417969 7.046875 C 36.527344 6.316406 35.203125 6.445312 34.46875 7.332031 C 34.160156 7.710938 33.996094 8.171875 33.996094 8.65625 C 33.996094 9.285156 34.273438 9.875 34.757812 10.273438 L 42.800781 16.855469 L 42.851562 22.300781 L 37.519531 17.933594 C 36.625 17.203125 35.300781 17.332031 34.566406 18.21875 C 34.261719 18.589844 34.089844 19.0625 34.089844 19.542969 C 34.089844 20.171875 34.371094 20.757812 34.855469 21.15625 L 42.902344 27.742188 L 43 39.109375 L 41 40.265625 L 31.085938 34.679688 L 29.199219 24.480469 C 28.988281 23.347656 27.894531 22.597656 26.757812 22.804688 C 26.207031 22.90625 25.730469 23.214844 25.414062 23.675781 C 25.09375 24.132812 24.976562 24.6875 25.078125 25.234375 L 26.328125 32 L 21.574219 29.320312 L 19.6875 19.121094 C 19.585938 18.574219 19.277344 18.097656 18.816406 17.78125 C 18.355469 17.464844 17.796875 17.34375 17.246094 17.445312 C 16.695312 17.546875 16.21875 17.855469 15.898438 18.316406 C 15.582031 18.773438 15.464844 19.328125 15.566406 19.878906 L 16.816406 26.640625 L 9.800781 22.691406 C 9.316406 22.417969 8.75 22.347656 8.210938 22.496094 C 7.671875 22.644531 7.222656 22.996094 6.945312 23.480469 C 6.671875 23.964844 6.601562 24.527344 6.753906 25.066406 C 6.902344 25.605469 7.253906 26.050781 7.738281 26.324219 L 14.753906 30.273438 L 8.289062 32.695312 C 7.765625 32.890625 7.351562 33.277344 7.117188 33.785156 C 6.886719 34.292969 6.867188 34.859375 7.066406 35.382812 C 7.371094 36.191406 8.160156 36.738281 9.027344 36.738281 C 9.277344 36.738281 9.523438 36.691406 9.765625 36.601562 L 19.511719 32.953125 L 24.269531 35.632812 L 17.800781 38.050781 C 16.722656 38.457031 16.171875 39.664062 16.578125 40.742188 C 16.882812 41.550781 17.671875 42.09375 18.539062 42.09375 C 18.796875 42.09375 19.042969 42.050781 19.277344 41.960938 L 29.023438 38.3125 L 38.957031 43.910156 L 38.957031 46.214844 L 29.144531 51.976562 L 19.335938 48.503906 C 18.246094 48.117188 17.046875 48.6875 16.660156 49.773438 C 16.472656 50.296875 16.5 50.863281 16.742188 51.367188 C 16.984375 51.871094 17.40625 52.25 17.933594 52.433594 L 24.4375 54.738281 L 19.730469 57.503906 L 9.917969 54.027344 C 9.394531 53.84375 8.824219 53.871094 8.320312 54.113281 C 7.8125 54.351562 7.433594 54.773438 7.246094 55.296875 C 7.058594 55.824219 7.085938 56.390625 7.328125 56.894531 C 7.566406 57.398438 7.988281 57.777344 8.519531 57.964844 L 15.023438 60.265625 L 8.082031 64.34375 C 7.597656 64.625 7.257812 65.078125 7.117188 65.621094 C 6.976562 66.160156 7.054688 66.71875 7.339844 67.199219 C 7.625 67.679688 8.078125 68.023438 8.621094 68.160156 C 9.164062 68.300781 9.726562 68.222656 10.207031 67.9375 L 17.152344 63.863281 L 16.023438 70.648438 C 15.832031 71.78125 16.605469 72.859375 17.746094 73.050781 C 17.863281 73.070312 17.976562 73.078125 18.089844 73.078125 C 19.117188 73.078125 19.988281 72.34375 20.152344 71.332031 L 21.859375 61.097656 L 26.566406 58.335938 L 25.4375 65.121094 C 25.246094 66.253906 26.019531 67.332031 27.160156 67.523438 C 27.277344 67.542969 27.390625 67.550781 27.507812 67.550781 C 28.535156 67.550781 29.402344 66.816406 29.570312 65.804688 L 31.273438 55.570312 L 41.105469 49.800781 L 43.109375 50.949219 L 43.210938 62.296875 L 35.285156 69.023438 C 34.40625 69.769531 34.300781 71.089844 35.050781 71.964844 C 35.800781 72.839844 37.125 72.945312 38.007812 72.199219 L 43.257812 67.738281 L 43.308594 73.183594 L 35.386719 79.910156 C 34.960938 80.273438 34.699219 80.777344 34.65625 81.332031 C 34.609375 81.886719 34.785156 82.429688 35.148438 82.851562 C 35.511719 83.277344 36.019531 83.535156 36.578125 83.578125 C 37.136719 83.625 37.675781 83.449219 38.101562 83.085938 Z M 43.359375 78.625 " fill-opacity="1" fill-rule="nonzero"/></g></svg>